<?xml version="1.0" standalone="no"?>
<!DOCTYPE svg PUBLIC "-//W3C//DTD SVG 20010904//EN"
 "http://www.w3.org/TR/2001/REC-SVG-20010904/DTD/svg10.dtd">
<svg version="1.0" xmlns="http://www.w3.org/2000/svg"
 width="700.000000pt" height="700.000000pt" viewBox="0 0 700.000000 700.000000"
 preserveAspectRatio="xMidYMid meet">
<metadata>
Created by potrace 1.11, written by Peter Selinger 2001-2013
</metadata>
<g transform="translate(0.000000,700.000000) scale(0.100000,-0.100000)"
fill="#000000" stroke="none">
<path d="M2125 6493 c-16 -2 -61 -11 -100 -20 -189 -44 -342 -129 -480 -268
-114 -114 -187 -230 -241 -383 l-23 -67 -488 -5 -488 -5 -50 -28 c-59 -33
-101 -84 -116 -141 -16 -59 -16 -63 -8 -119 11 -70 61 -139 124 -174 l50 -28
489 -5 488 -5 17 -55 c87 -276 320 -519 596 -623 119 -44 195 -59 320 -63 288
-8 535 88 736 287 112 110 191 236 245 389 l23 65 1738 5 1738 5 41 22 c49 26
101 83 122 132 19 45 18 136 -1 182 -20 49 -73 106 -121 132 l-41 22 -1738 5
-1738 5 -23 67 c-103 294 -330 522 -617 621 -132 46 -312 66 -454 50z"/>
<path d="M4605 4490 c-146 -22 -321 -92 -437 -177 -167 -121 -302 -304 -364
-493 l-21 -65 -1739 -5 -1739 -5 -42 -22 c-88 -48 -135 -125 -134 -225 0 -40
7 -74 21 -104 24 -49 103 -124 131 -124 10 0 21 -4 24 -10 4 -6 607 -10 1737
-10 952 0 1734 -2 1736 -5 3 -3 14 -31 24 -62 72 -218 242 -429 433 -538 166
-96 304 -136 480 -141 289 -8 530 85 735 285 92 90 197 246 226 336 2 6 12 35
23 65 l20 55 488 5 c475 5 489 6 528 26 158 85 186 290 56 407 -23 21 -54 43
-69 50 -19 9 -166 13 -517 17 -480 5 -490 5 -493 25 -3 21 -5 27 -43 115 -125
295 -383 511 -699 585 -81 19 -283 27 -365 15z"/>
<path d="M2085 2488 c-27 -6 -93 -23 -145 -40 -157 -50 -276 -123 -395 -242
-114 -115 -187 -232 -241 -384 l-23 -67 -488 -5 c-482 -5 -489 -5 -530 -27
-156 -84 -183 -290 -54 -406 23 -21 54 -43 69 -50 19 -9 166 -13 516 -17 l488
-5 17 -55 c87 -276 320 -519 596 -623 140 -52 190 -61 355 -61 165 0 214 9
355 61 270 100 493 329 588 603 l26 75 1738 5 1738 5 40 21 c90 48 138 128
137 225 0 98 -48 175 -137 223 l-40 21 -1738 5 -1738 5 -24 70 c-113 323 -371
558 -709 647 -91 23 -313 32 -401 16z"/>
</g>
</svg>
